<svg xmlns="http://www.w3.org/2000/svg" viewBox="0 0 640 260" role="img" aria-labelledby="title desc">
  <title id="title">Web development course thumbnail</title>
  <desc id="desc">A responsive website layout with code brackets on a bright background.</desc>
  <defs>
    <linearGradient id="bg" x1="0" y1="0" x2="1" y2="1">
      <stop offset="0" stop-color="#0f766e"/>
      <stop offset="0.55" stop-color="#14b8a6"/>
      <stop offset="1" stop-color="#f59e0b"/>
    </linearGradient>
    <linearGradient id="screen" x1="0" y1="0" x2="0" y2="1">
      <stop offset="0" stop-color="#ffffff"/>
      <stop offset="1" stop-color="#ecfeff"/>
    </linearGradient>
  </defs>
  <rect width="640" height="260" fill="url(#bg)"/>
  <path d="M0 208c88-38 149-34 228 0s160 33 244-8 129-48 168-22v82H0z" fill="#0f172a" opacity=".16"/>
  <rect x="72" y="46" width="348" height="172" rx="18" fill="url(#screen)" stroke="#ffffff" stroke-width="5"/>
  <rect x="72" y="46" width="348" height="36" rx="18" fill="#0f172a"/>
  <rect x="104" y="106" width="114" height="72" rx="10" fill="#dbeafe"/>
  <rect x="240" y="106" width="136" height="12" rx="6" fill="#14b8a6"/>
  <rect x="240" y="134" width="92" height="12" rx="6" fill="#64748b"/>
  <rect x="240" y="162" width="116" height="12" rx="6" fill="#f59e0b"/>
  <rect x="446" y="84" width="118" height="134" rx="20" fill="#0f172a" stroke="#ffffff" stroke-width="5"/>
  <rect x="466" y="108" width="78" height="12" rx="6" fill="#14b8a6"/>
  <rect x="466" y="136" width="54" height="12" rx="6" fill="#f59e0b"/>
  <rect x="466" y="164" width="68" height="12" rx="6" fill="#ffffff"/>
  <text x="102" y="69" font-family="Arial, sans-serif" font-size="18" font-weight="800" fill="#ffffff">&lt;/&gt;</text>
  <text x="434" y="62" font-family="Arial, sans-serif" font-size="32" font-weight="800" fill="#ffffff">WEB</text>
</svg>
