<svg xmlns="http://www.w3.org/2000/svg" viewBox="0 0 640 260" role="img" aria-labelledby="title desc">
  <title id="title">DSA course thumbnail</title>
  <desc id="desc">A code editor and connected algorithm nodes on a blue background.</desc>
  <defs>
    <linearGradient id="bg" x1="0" y1="0" x2="1" y2="1">
      <stop offset="0" stop-color="#113f67"/>
      <stop offset="0.58" stop-color="#2563eb"/>
      <stop offset="1" stop-color="#22c55e"/>
    </linearGradient>
    <linearGradient id="panel" x1="0" y1="0" x2="0" y2="1">
      <stop offset="0" stop-color="#f8fbff"/>
      <stop offset="1" stop-color="#dbeafe"/>
    </linearGradient>
  </defs>
  <rect width="640" height="260" fill="url(#bg)"/>
  <circle cx="530" cy="34" r="90" fill="#ffffff" opacity=".12"/>
  <circle cx="104" cy="222" r="72" fill="#0f172a" opacity=".18"/>
  <rect x="58" y="42" width="286" height="176" rx="18" fill="url(#panel)" opacity=".98"/>
  <rect x="58" y="42" width="286" height="34" rx="18" fill="#0f172a"/>
  <circle cx="84" cy="59" r="5" fill="#ef4444"/>
  <circle cx="102" cy="59" r="5" fill="#f59e0b"/>
  <circle cx="120" cy="59" r="5" fill="#22c55e"/>
  <rect x="88" y="100" width="70" height="10" rx="5" fill="#2563eb"/>
  <rect x="88" y="126" width="168" height="10" rx="5" fill="#64748b"/>
  <rect x="88" y="152" width="128" height="10" rx="5" fill="#64748b"/>
  <rect x="88" y="178" width="196" height="10" rx="5" fill="#22c55e"/>
  <g fill="none" stroke="#ffffff" stroke-width="8" stroke-linecap="round" stroke-linejoin="round">
    <path d="M430 72 514 126 430 184"/>
    <path d="M514 126H374"/>
  </g>
  <g fill="#ffffff" stroke="#0f172a" stroke-width="5">
    <circle cx="374" cy="126" r="24"/>
    <circle cx="430" cy="72" r="24"/>
    <circle cx="514" cy="126" r="24"/>
    <circle cx="430" cy="184" r="24"/>
  </g>
  <text x="388" y="137" font-family="Arial, sans-serif" font-size="28" font-weight="800" fill="#0f172a">DSA</text>
</svg>
