<svg xmlns="http://www.w3.org/2000/svg" viewBox="0 0 640 260" role="img" aria-labelledby="title desc">
  <title id="title">Machine learning course thumbnail</title>
  <desc id="desc">Neural network nodes and analytics cards on a violet and green background.</desc>
  <defs>
    <linearGradient id="bg" x1="0" y1="0" x2="1" y2="1">
      <stop offset="0" stop-color="#312e81"/>
      <stop offset="0.5" stop-color="#7c3aed"/>
      <stop offset="1" stop-color="#10b981"/>
    </linearGradient>
    <linearGradient id="card" x1="0" y1="0" x2="0" y2="1">
      <stop offset="0" stop-color="#ffffff"/>
      <stop offset="1" stop-color="#ede9fe"/>
    </linearGradient>
  </defs>
  <rect width="640" height="260" fill="url(#bg)"/>
  <rect x="66" y="48" width="210" height="164" rx="20" fill="url(#card)" opacity=".96"/>
  <rect x="100" y="158" width="22" height="28" rx="6" fill="#10b981"/>
  <rect x="140" y="126" width="22" height="60" rx="6" fill="#7c3aed"/>
  <rect x="180" y="98" width="22" height="88" rx="6" fill="#2563eb"/>
  <rect x="220" y="138" width="22" height="48" rx="6" fill="#f59e0b"/>
  <path d="M98 132c34 2 43-34 72-30 27 4 29 36 68 26" fill="none" stroke="#0f172a" stroke-width="7" stroke-linecap="round"/>
  <g stroke="#ffffff" stroke-width="7" stroke-linecap="round">
    <path d="M390 74 470 118 390 186"/>
    <path d="M470 118 552 76"/>
    <path d="M470 118 552 184"/>
    <path d="M326 130 390 74"/>
    <path d="M326 130 390 186"/>
  </g>
  <g fill="#ffffff" stroke="#0f172a" stroke-width="5">
    <circle cx="326" cy="130" r="22"/>
    <circle cx="390" cy="74" r="22"/>
    <circle cx="390" cy="186" r="22"/>
    <circle cx="470" cy="118" r="24"/>
    <circle cx="552" cy="76" r="22"/>
    <circle cx="552" cy="184" r="22"/>
  </g>
  <text x="444" y="133" font-family="Arial, sans-serif" font-size="34" font-weight="800" fill="#0f172a">AI</text>
</svg>
